<?xml version="1.0" encoding="UTF-8" standalone="no"?>
<!-- Created with Inkscape (http://www.inkscape.org/) -->

<svg
   version="1.1"
   id="svg1"
   width="826.54584"
   height="276.28833"
   viewBox="0 0 826.54584 276.28833"
   xmlns="http://www.w3.org/2000/svg"
   xmlns:svg="http://www.w3.org/2000/svg">
  <defs
     id="defs1" />
  <g
     id="g1"
     transform="translate(-108.1349,-372.11847)">
    <path
       style="fill:#0000ff"
       d="m 182.60097,647.86857 c -3.85313,-1.03048 -7.47558,-4.52522 -9.71093,-9.36857 -1.5587,-3.37726 -1.84954,-6.60773 -1.86808,-20.75 L 171,601 149.75,600.978 c -19.20129,-0.0199 -21.68384,-0.21812 -25.75,-2.05658 -5.50855,-2.49062 -10.46391,-7.10558 -13.33763,-12.42146 l -2.16237,-4 -0.28928,-94 c -0.21553,-70.03673 0.0122,-95.09565 0.89336,-98.29787 1.65924,-6.02987 5.99015,-11.58556 11.60376,-14.88527 L 125.5,372.5 188,372.21548 c 54.49298,-0.24806 63.02179,-0.086 66.57289,1.26507 5.24145,1.99418 55.5933,52.27961 57.91671,57.84031 2.30303,5.51192 2.26103,143.78851 -0.046,151.55723 -1.95461,6.58189 -7.36272,12.69803 -13.94356,15.76906 -4.84363,2.26034 -5.83473,2.33362 -31.69128,2.34308 l -26.69128,0.01 -19.30872,18.35084 c -31.24397,29.69401 -31.92074,30.19914 -38.20775,28.51773 z M 212.5,600.0294 c 8.8125,-8.42344 17.79687,-16.12285 20,-17.13955 3.5739,-1.64929 6.89674,-1.84827 31.1933,-1.86789 26.95531,-0.0218 27.20692,-0.0414 28.75,-2.24447 1.36943,-1.95514 1.5567,-9.89485 1.5567,-66 V 449 h -18.04966 c -19.15526,0 -21.38626,-0.44686 -26.79535,-5.36697 C 243.93282,438.88294 243.53402,436.96295 243,414 l -0.5,-21.5 -52.5,-0.28624 c -28.875,-0.15743 -53.94803,-0.0273 -55.71785,0.28928 C 127.53778,393.70929 128,386.78803 128,486.57143 c 0,89.09524 0.0295,90.45806 2,92.42857 1.8927,1.8927 3.33333,2 26.85212,2 24.23294,0 24.93677,0.057 28.25,2.28656 5.05812,3.40378 6.08359,7.69821 5.71192,23.92008 l -0.31404,13.70663 3,-2.79512 c 1.65,-1.53732 10.2,-9.67725 19,-18.08875 z M 176.78082,543.21918 C 160.14134,526.5797 159,525.20064 159,521.73495 c 0,-4.63616 4.09549,-9.47077 8.78398,-10.36923 3.14487,-0.60265 3.85491,-0.064 16.7626,12.71726 l 13.47863,13.34657 29.27653,-29.21477 C 256.07851,479.4987 256.64781,479 260.65277,479 c 5.66668,0 9.34723,3.68959 9.34723,9.37018 0,4.05021 -0.39502,4.49246 -34.26619,38.36363 C 203.94373,558.5239 201.21811,561 198.01463,561 c -3.14118,0 -5.05857,-1.60559 -21.23381,-17.78082 z M 154,472 c -1.11111,-1.11111 -2,-3.33333 -2,-5 0,-1.66667 0.88889,-3.88889 2,-5 1.91515,-1.91515 3.33333,-2 33.42742,-2 h 31.42742 l 2.07258,2.63486 c 2.72177,3.46016 2.61667,5.91196 -0.38197,8.91059 L 218.09091,474 H 187.04545 C 157.33333,474 155.9141,473.9141 154,472 Z m 0.22251,-35.5567 C 152.57408,435.28869 152,433.88268 152,431 c 0,-6.9549 0.22623,-7 35.11172,-7 27.75186,0 30.86329,0.16634 32.73485,1.75 3.44,2.91082 3.75376,6.74058 0.79466,9.69968 L 218.09091,438 h -30.82295 c -26.27871,0 -31.15061,-0.22951 -33.04545,-1.5567 z M 273.98369,418.47978 262.5,406.95956 l -0.287,10.20262 c -0.15785,5.61144 -0.0595,10.79553 0.21862,11.52022 0.37692,0.98224 3.37285,1.3176 11.77068,1.3176 h 11.26508 z M 756,580.24012 c 0,-0.45515 2.65778,-7.69165 5.90617,-16.08111 l 5.90617,-15.25358 -3.98306,-10.20271 C 754.17186,513.96499 738,470.96833 738,470.02955 738,469.38712 742.05545,469 748.78551,469 h 10.7855 l 9.37809,25.25 c 5.15795,13.8875 9.65666,25.57969 9.99714,25.98264 0.34047,0.40296 4.65436,-10.95321 9.5864,-25.23591 l 8.96736,-25.96856 10.75,-0.0141 c 6.4422,-0.008 10.75,0.38292 10.75,0.97662 0,0.54489 -2.86139,8.53239 -6.35865,17.75 -13.92268,36.6956 -24.87207,65.43905 -30.00217,78.7593 l -5.3919,14 -10.62364,0.28383 C 760.78064,580.93994 756,580.69527 756,580.24012 Z M 483.28693,549.05413 c -15.94822,-5.83475 -25.96851,-19.40277 -27.04247,-36.61699 -1.30869,-20.97665 9.89861,-37.77814 29.08741,-43.60656 7.96032,-2.41787 19.84656,-2.1593 27.66813,0.60189 10.19883,3.60041 20.40051,14.30153 24.04561,25.22278 2.46808,7.39471 2.75008,20.48085 0.59446,27.58477 -3.29769,10.8676 -10.99096,19.78622 -21.60148,25.04207 -5.87944,2.91234 -7.41062,3.22218 -17,3.43994 -8.31836,0.18891 -11.63686,-0.16248 -15.75166,-1.6679 z m 20.8808,-17.084 c 4.11473,-1.14286 9.26962,-6.42487 11.61107,-11.8974 0.91254,-2.13283 1.53364,-6.59542 1.54109,-11.07273 0.0217,-13.07454 -6.2619,-21.80758 -16.39147,-22.7809 -10.54351,-1.0131 -16.89371,2.62359 -20.91869,11.97991 -3.12437,7.2628 -2.55162,18.49424 1.2762,25.02592 4.84618,8.26939 13.15786,11.44603 22.8818,8.7452 z M 565.5,549.60118 c -6.3754,-2.01628 -9.89146,-4.18519 -13.80242,-8.51417 C 548.24382,537.26412 545,531.19494 545,528.55588 c 0,-0.75916 3.56238,-1.68898 9.6988,-2.53148 8.25529,-1.13341 9.76796,-1.12413 10.16346,0.0624 0.95622,2.86866 5.96448,6.78948 10.09235,7.901 C 583.2421,536.21937 592,532.6714 592,527.08241 c 0,-4.87966 -2.41132,-6.08676 -20,-10.01198 -10.99849,-2.4545 -16.08207,-5.04596 -20.38921,-10.39382 -2.69,-3.33998 -3.12622,-4.75182 -3.45015,-11.16657 -0.45968,-9.10297 0.952,-13.59205 5.9946,-19.06263 13.46148,-14.60398 43.59215,-11.71042 52.88993,5.07921 5.06064,9.13833 5.09945,9.02553 -3.76199,10.93484 -4.28075,0.92235 -8.57068,1.90117 -9.53318,2.17516 -1.11773,0.31817 -1.75,-0.0511 -1.75,-1.02218 C 592,487.98431 586.63177,484 579.04605,484 c -6.22641,0 -10.79885,2.16689 -11.63941,5.51595 -1.41161,5.6243 1.75023,7.75695 15.62383,10.53818 13.06838,2.61981 19.02091,5.15346 23.34048,9.93471 4.52818,5.01216 5.99612,9.84951 5.36705,17.68633 -0.83887,10.45056 -7.88092,18.50798 -19.08315,21.83469 -6.09835,1.81101 -21.55288,1.86298 -27.15485,0.0913 z m 80.68424,0.38825 c -5.8719,-1.23484 -10.62863,-4.35883 -13.38383,-8.78984 -2.2131,-3.55917 -2.3123,-4.639 -2.61379,-28.44959 L 629.87324,488 H 624.43662 619 v -9.5 -9.5 h 5.5 5.5 V 458.5 448 h 10.5 10.5 v 10.46107 10.46106 l 8.75,0.28894 8.75,0.28893 0.28753,9.25 0.28752,9.25 H 660.03753 651 l 0.0153,19.75 c 0.008,10.8625 0.34592,20.24513 0.75,20.8503 1.71871,2.57399 5.35839,3.48502 11.25701,2.81766 L 669,530.74167 V 540.37083 550 h -3.35331 c -1.84432,0 -6.00682,0.20183 -9.25,0.44851 -3.24318,0.24669 -7.83878,0.0401 -10.21245,-0.45908 z m 188.14821,-0.78783 c -5.92989,-2.10966 -11.26607,-5.89527 -14.28377,-10.13324 -1.92696,-2.70616 -5.41148,-11.10426 -4.80936,-11.59111 C 815.64914,527.14589 830.88274,525 832.82524,525 c 0.95895,0 2.54237,1.3523 3.51871,3.00512 2.36095,3.99677 6.93413,6.22083 13.10112,6.37143 8.78883,0.21464 14.30744,-3.78295 12.86053,-9.31595 -0.78851,-3.01527 -4.2905,-4.54121 -16.98449,-7.40075 -19.0412,-4.28935 -25.33916,-9.21659 -26.96774,-21.09836 -2.39724,-17.48981 12.81183,-30.72699 33.66226,-29.29787 10.15058,0.69573 16.82376,3.65164 22.5022,9.96743 4.15707,4.62367 7.5766,12.00785 6.19876,13.38569 -0.33211,0.33211 -3.66671,1.24038 -7.41021,2.01838 -3.74351,0.77799 -7.50295,1.62982 -8.35431,1.89296 -1.06792,0.33007 -1.94855,-0.62943 -2.83979,-3.09413 -1.70178,-4.70617 -6.24418,-7.42541 -12.41194,-7.43021 -5.86348,-0.005 -10.46668,2.2171 -11.27615,5.44228 -1.49717,5.96519 1.80398,8.05463 17.57581,11.12449 17.98608,3.50085 26.02522,11.12581 25.97804,24.63965 -0.0373,10.69631 -5.27974,18.31355 -15.92723,23.14242 -6.54573,2.96862 -24.41595,3.44696 -31.71836,0.84902 z M 912,550.06377 c -5.33069,-1.07562 -9.60333,-3.6774 -12.69831,-7.73249 L 896.5,538.66045 896.2019,513.33023 895.90379,488 h -5.98942 -5.98942 l 0.28752,-9.25 0.28753,-9.25 5.75,-0.2999 5.75,-0.29991 V 458.4501 448 h 10.5 10.5 v 10.5 10.5 h 8.33333 c 4.58334,0 8.52084,0.18548 8.75,0.41219 0.22917,0.2267 0.27223,4.5017 0.0957,9.5 L 933.85806,488 H 925.42903 917 v 19.80887 c 0,24.33474 -0.24234,23.78056 10.26635,23.47686 l 7.41437,-0.21428 -0.10608,9.21428 -0.10609,9.21427 -5.48427,0.6511 C 921.97324,550.98347 916.4163,550.95489 912,550.06377 Z M 372,494.44122 v -55.55878 l 27.25,0.30878 27.25,0.30878 6.22237,2.87417 c 8.15924,3.76881 15.21872,11.19137 18.21433,19.15109 1.91669,5.09291 2.19291,7.45067 1.87148,15.97474 -0.34273,9.0889 -0.68644,10.57636 -3.77247,16.32601 C 441.35149,508.14263 428.6579,514 405.31634,514 H 395 v 18 18 H 383.5 372 Z m 49.61286,-2.17431 c 12.29243,-6.92615 12.28176,-26.77736 -0.0174,-32.36303 -3.20302,-1.45465 -6.54695,-1.86474 -15.34546,-1.88192 L 395,458 l -0.002,18.25 -0.002,18.25 12.25183,-0.5213 c 6.73851,-0.28672 13.20263,-1.05702 14.3647,-1.71179 z M 682,494.5 V 439 h 11 11 v 45 45 h 22 22 v 10.5 10.5 h -33 -33 z"
       id="path1" />
  </g>
</svg>
